<?xml version="1.0" encoding="UTF-8"?>
<svg width="20px" height="17px" viewBox="0 0 20 17" version="1.1" xmlns="http://www.w3.org/2000/svg" xmlns:xlink="http://www.w3.org/1999/xlink">
    <title>Icon4</title>
    <g id="CaseStudy" stroke="none" stroke-width="1" fill="none" fill-rule="evenodd">
        <g transform="translate(-86.000000, -338.000000)" fill="currentColor" id="Navigation-Menu">
            <g transform="translate(66.000000, 51.000000)">
                <g id="Page4" transform="translate(20.000000, 287.000000)">
                    <path d="M11.66664,0 C16.2617,0 20,3.086503 20,6.880801 C20,8.139617 19.58234,9.367527 18.78984,10.445191 C18.78984,10.445191 19.5641,12.830495 19.5641,12.830495 C19.61058,12.974553 19.57116,13.131752 19.46124,13.238427 C19.35132,13.345391 19.18906,13.38393 19.0412,13.3382 C19.0412,13.3382 16.40902,12.532179 16.40902,12.532179 C15.76484,12.902014 15.06996,13.187036 14.34366,13.392039 L14.4615152,13.3562734 C14.4400294,13.3639462 14.401764,13.3756388 14.34366,13.392039 C13.1741,15.514251 10.55082,17 7.49988,17 C5.94806,17 4.4628,16.617738 3.1912,15.892569 C3.1912,15.892569 0.95854,16.576258 0.95854,16.576258 C0.81048,16.621614 0.6485,16.583007 0.53868,16.476485 C0.42876,16.369742 0.38934,16.212458 0.43574,16.068621 C0.43574,16.068621 1.08514,14.069047 1.08514,14.069047 C0.37422,13.120175 0,12.038924 0,10.928467 C0,8.790938 1.37318,6.909327 3.44156,5.827345 L3.48687934,5.60884661 C4.21238206,2.42133178 7.598928,0 11.66664,0 Z M3.44156,5.827345 L3.44198676,6.05552099 C3.44235537,6.14433446 3.4428696,6.19788446 3.44313693,6.22808851 L3.44322609,6.26089979 C3.44196571,6.28422135 3.42623913,5.86947174 3.3365,6.824582 L3.3349,6.85268512 L3.3333,6.880801 C3.31488,6.875837 3.3365,6.843554 3.3365,6.824582 C1.81274,7.789621 0.83322,9.269692 0.83322,10.928467 C0.83322,11.923766 1.1934,12.896914 1.87498,13.742256 C1.9595,13.84735 1.98554,13.986376 1.94456,14.113536 C1.94456,14.113536 1.78682667,14.5992033 1.47136,15.570538 C2.57050667,15.233938 3.12008,15.065638 3.12008,15.065638 C3.16104,15.052905 3.2035,15.04687 3.24538,15.04687 C3.3223,15.04687 3.39838,15.067423 3.46512,15.1079 C4.64018,15.81595 6.03542,16.190307 7.49988,16.190307 C9.91772,16.190307 12.02994,15.165122 13.19784,13.640256 L12.8200322,13.6918802 C12.4404675,13.7369435 12.055725,13.761806 11.66664,13.761806 C7.0715,13.761806 3.3333,10.675082 3.3333,6.880801 C3.44156,6.910415 3.4852,6.169793 3.44156,5.827345 Z M11.66664,0.80954 C7.53132,0.80954 4.1666,3.533042 4.1666,6.880801 C4.1666,10.228543 7.53132,12.952266 11.66664,12.952266 C13.28292,12.952266 14.82786,12.535477 16.13474,11.747068 C16.23814,11.685324 16.36382,11.669361 16.47988,11.705027 C16.47988,11.705027 17.1628067,11.914178 18.52866,12.33248 C18.13038,11.1058733 17.93124,10.49257 17.93124,10.49257 C17.89044,10.367059 17.91538,10.230192 17.99714,10.125387 C18.76206,9.149638 19.16652,8.027621 19.16652,6.880801 C19.16652,3.533042 15.80196,0.80954 11.66664,0.80954 Z" id="Icon4"></path>
                </g>
            </g>
        </g>
    </g>
</svg>