<?xml version="1.0" encoding="UTF-8"?>
<svg width="21px" height="21px" viewBox="0 0 21 21" version="1.1" xmlns="http://www.w3.org/2000/svg" xmlns:xlink="http://www.w3.org/1999/xlink">
    <title>Icon5</title>
    <g id="CaseStudy" stroke="none" stroke-width="1" fill="none" fill-rule="evenodd">
        <g transform="translate(-85.000000, -384.000000)" id="Navigation-Menu">
            <g transform="translate(66.000000, 51.000000)">
                <g id="Icon5" transform="translate(19.000000, 333.000000)">
                    <path d="M0.634114706,11.0937349 L2.74511471,11.0937349 C2.93013748,11.1121228 3.09854764,11.208513 3.20811471,11.3587349 C3.42280737,11.6408323 3.55752887,11.9755634 3.59811471,12.3277349 C3.66916879,12.9410466 3.92002249,13.5196453 4.31911471,13.9907349 C4.66450058,14.4003422 5.16944334,14.6415198 5.70511471,14.6527349 C6.20740051,14.6437518 6.68335911,14.4264191 7.01911471,14.0527349 C7.41094021,13.6175581 7.67013199,13.0793968 7.76611471,12.5017349 L8.51311471,8.64973485 C8.55847826,8.31118591 8.70524563,7.99429388 8.93411471,7.74073485 L8.98811471,7.70173485 L9.25811471,7.54773485 L9.33811471,7.54773485 C9.5169211,7.54969411 9.68452292,7.63515993 9.79111471,7.77873485 C10.0198193,8.06129581 10.1590845,8.40562913 10.1911147,8.76773485 L11.5281147,17.9317349 C11.5921193,18.5457643 11.8395247,19.1262958 12.2381147,19.5977349 C12.5764559,20.0156473 13.0854107,20.2584414 13.6231147,20.2584414 C14.1608187,20.2584414 14.6697735,20.0156473 15.0081147,19.5977349 C15.4070019,19.1262779 15.6550556,18.5458602 15.7201147,17.9317349 L16.5451147,12.3227349 C16.5846397,11.9767589 16.715441,11.6475123 16.9241147,11.3687349 C17.0347575,11.2133278 17.2064835,11.1125479 17.3961147,11.0917349 L19.3701147,11.0917349 C19.6274006,11.0875495 19.8572453,10.9299146 19.9538256,10.6914071 C20.0504059,10.4528996 19.9949989,10.179756 19.8131147,9.99773485 C19.6977656,9.87762704 19.5386404,9.80943051 19.3721147,9.80873485 L17.4001147,9.80873485 C16.8360482,9.83123421 16.3096886,10.0980642 15.9581147,10.5397349 C15.5975317,11.0042077 15.3676022,11.556591 15.2921147,12.1397349 L14.4801147,17.7397349 C14.4472566,18.1016407 14.3080852,18.445742 14.0801147,18.7287349 C13.9740149,18.8739971 13.8078035,18.9633541 13.6281147,18.9717349 C13.4548395,18.9603636 13.2943775,18.8765022 13.1861147,18.7407349 C12.9525429,18.455795 12.8094232,18.107572 12.7751147,17.7407349 L11.4521147,8.57673485 C11.3809234,7.96267469 11.1297228,7.38338243 10.7301147,6.91173485 C10.3805432,6.50918569 9.87714083,6.27310233 9.34411471,6.26173485 C8.83876198,6.27016974 8.35860158,6.48389527 8.01411471,6.85373485 C7.62814362,7.28980536 7.37425355,7.82672042 7.28211471,8.40173485 L6.52811471,12.2517349 C6.47899082,12.5824944 6.34070887,12.8936288 6.12811471,13.1517349 L6.09411471,13.1907349 L5.74511471,13.3907349 L5.62911471,13.3627349 C5.48047693,13.3329504 5.34583744,13.2549087 5.24611471,13.1407349 C5.02025339,12.8544962 4.87862304,12.510982 4.83711471,12.1487349 C4.77256069,11.5595859 4.53999013,11.0014166 4.16711471,10.5407349 C3.8236827,10.097033 3.29993373,9.83002371 2.73911471,9.81273485 L0.634114706,9.81273485 C0.282699687,9.81438814 -0.000992539368,10.1003177 0,10.4517349 C-0.00312477761,10.6215866 0.0623690308,10.785548 0.18173873,10.9064239 C0.30110843,11.0272998 0.464235668,11.0948444 0.634114706,11.0937349 L0.634114706,11.0937349 Z" id="Shape2" fill="#4E545E"></path>
                    <path d="M20.3581147,9.03673485 L18.2211147,9.03673485 C18.0350929,9.01936943 17.8649191,8.92466715 17.7521147,8.77573485 C17.5354814,8.49881744 17.3988684,8.16783354 17.3571147,7.81873485 C17.2836284,7.21126533 17.0292984,6.63989395 16.6271147,6.17873485 C16.2733721,5.77343685 15.7649703,5.53630373 15.2271147,5.52573485 C14.7213094,5.5339946 14.2408443,5.74857827 13.8971147,6.11973485 C13.5017742,6.54594415 13.2387814,7.07783578 13.1401147,7.65073485 L12.3841147,11.4507349 C12.3385007,11.7875398 12.1896811,12.1019474 11.9581147,12.3507349 L11.9031147,12.3897349 L11.6301147,12.5417349 L11.5461147,12.5417349 C11.3665813,12.5399105 11.1977919,12.4558844 11.0881147,12.3137349 C10.8590738,12.0363836 10.7195944,11.6960539 10.6881147,11.3377349 L9.33011471,2.29173485 C9.26358498,1.68356637 9.01270505,1.11027608 8.61111471,0.648734853 C8.26245874,0.237259939 7.75044075,0 7.21111471,0 C6.67178866,0 6.15977067,0.237259939 5.81111471,0.648734853 C5.40879998,1.11002564 5.15721165,1.68333997 5.09011471,2.29173485 L4.25511471,7.82673485 C4.21454581,8.16935049 4.08183748,8.49455502 3.87111471,8.76773485 C3.75746759,8.9221362 3.58384396,9.02129782 3.39311471,9.04073485 L1.39311471,9.04073485 C1.04169754,9.03962761 0.755767996,9.32331983 0.754114706,9.67473485 C0.754600562,9.84276323 0.822723298,10.0035185 0.943114706,10.1207349 C1.06158055,10.2395184 1.22235423,10.3064175 1.39011471,10.3067349 L3.39011471,10.3067349 C3.95756148,10.2865117 4.48911718,10.0240106 4.85011471,9.58573485 C5.21365387,9.13130958 5.44664837,8.58650345 5.52411471,8.00973485 L6.34611471,2.47973485 C6.37846606,2.12192936 6.5178554,1.78216785 6.74611471,1.50473485 C6.85518332,1.36023886 7.02322904,1.27217997 7.20411471,1.26473485 C7.37825862,1.27555701 7.54011588,1.35811508 7.65111471,1.49273485 C7.8870942,1.77244789 8.03220914,2.11744471 8.06711471,2.48173485 L9.40711471,11.5217349 C9.48024357,12.1303876 9.73496993,12.7029121 10.1381147,13.1647349 C10.4957245,13.5632659 11.0027595,13.7954154 11.5381147,13.8057349 C12.0468662,13.7986728 12.5317486,13.5888091 12.8851147,13.2227349 C13.2741261,12.7954002 13.5314366,12.2648057 13.6261147,11.6947349 L14.3851147,7.89473485 C14.434842,7.56865732 14.5732124,7.26251294 14.7851147,7.00973485 L14.8201147,6.97173485 L15.1731147,6.77173485 L15.2901147,6.79973485 C15.4394885,6.82873253 15.575346,6.90561308 15.6771147,7.01873485 C15.9054454,7.29903459 16.0490663,7.63865997 16.0911147,7.99773485 C16.1576754,8.58137496 16.3937258,9.13273871 16.7701147,9.58373485 C17.1226965,10.0239958 17.6512745,10.2866387 18.2151147,10.3017349 L20.3521147,10.3017349 C20.520793,10.3025324 20.6828792,10.2362891 20.8027154,10.1175782 C20.9225515,9.99886724 20.9903209,9.83741312 20.9911219,9.66873485 C20.9919196,9.50069897 20.9254549,9.33932717 20.8065404,9.22060046 C20.6876258,9.10187376 20.5261491,9.03566432 20.3581147,9.03673485 Z" id="Shape1" fill="currentColor"></path>
                </g>
            </g>
        </g>
    </g>
</svg>