<?xml version="1.0" encoding="UTF-8"?>
<svg width="20px" height="18px" viewBox="0 0 20 18" version="1.1" xmlns="http://www.w3.org/2000/svg" xmlns:xlink="http://www.w3.org/1999/xlink">
    <title>Icon1</title>
    <g id="CaseStudy" stroke="none" stroke-width="1" fill="none" fill-rule="evenodd">
        <g transform="translate(-86.000000, -66.000000)" id="Navigation-Menu">
            <g transform="translate(66.000000, 51.000000)">
                <g id="Icon1" transform="translate(20.000000, 15.000000)">
                    <path d="M15.0261043,14.0515244 L4.42010427,14.0515244 L4.42010427,13.1455244 L5.72010427,11.8105244 L5.72010427,9.19452439 C5.68627594,7.28346257 7.01376417,5.61738932 8.88410427,5.22352439 L8.88410427,4.84452439 C8.86900523,4.53573152 9.02515205,4.24370878 9.29034112,4.08478812 C9.55553019,3.92586747 9.88667835,3.92586747 10.1518674,4.08478812 C10.4170565,4.24370878 10.5732033,4.53573152 10.5581043,4.84452439 L10.5581043,5.22652439 C12.4278945,5.61970624 13.7558912,7.28410636 13.7241043,9.19452439 L13.7241043,11.8075244 L15.0241043,13.1425244 L15.0241043,14.0485244 L15.0261043,14.0515244 Z M9.72610427,16.2865244 C9.09714516,16.2590487 8.5919916,15.7582238 8.55910427,15.1295244 L10.8841043,15.1295244 C10.8514743,15.7560351 10.3497238,16.2560569 9.72310427,16.2865244 L9.72610427,16.2865244 Z M15.9511043,12.5465244 L14.8071043,11.3735244 L14.8071043,9.19452439 C14.8317657,7.08847083 13.5545271,5.18554044 11.5961043,4.41052439 C11.4099763,3.52675182 10.630264,2.89414731 9.72710427,2.89414731 C8.82394449,2.89414731 8.04423222,3.52675182 7.85810427,4.41052439 C5.9000747,5.18586201 4.62328243,7.08872002 4.64810427,9.19452439 L4.64810427,11.3695244 L3.50410427,12.5425244 C3.40222425,12.6459699 3.34510427,12.7853331 3.34510427,12.9305244 L3.34510427,14.5945244 C3.34565583,14.8923676 3.58726059,15.1335249 3.88510427,15.1335244 L7.48510427,15.1335244 C7.48510427,16.3711945 8.48843415,17.3745244 9.72610427,17.3745244 C10.9637744,17.3745244 11.9671043,16.3711945 11.9671043,15.1335244 L15.5671043,15.1335244 C15.8649479,15.1335249 16.1065527,14.8923676 16.1071043,14.5945244 L16.1071043,12.9335244 C16.1060942,12.7888269 16.0491131,12.6501372 15.9481043,12.5465244 L15.9511043,12.5465244 Z" id="Shape" fill="#F55661"></path>
                    <path d="M13.2031043,2.27152439 L12.9401043,2.91152439 C12.892004,3.02778949 12.9457992,3.16116614 13.0611043,3.21152439 C14.8096811,4.02657149 15.9641709,5.74175854 16.0611043,7.66852439 C16.0643578,7.79320072 16.1663855,7.89252444 16.2911043,7.89252444 L16.9811043,7.89252444 C17.0435158,7.89252444 17.103263,7.86723502 17.1466339,7.82235557 C17.1900048,7.77747612 17.2132751,7.71689816 17.2111043,7.65452439 C17.1061669,5.27115305 15.6754284,3.14724977 13.5061043,2.15452439 C13.3901198,2.10335772 13.2546018,2.15568645 13.2031043,2.27152439 Z M14.0771043,0.138524395 L13.8161043,0.778524395 C13.7924994,0.834485013 13.7920919,0.897530685 13.8149714,0.953791763 C13.8378509,1.01005284 13.8821432,1.05492059 13.9381043,1.07852439 C16.5450862,2.25034094 18.2619356,4.79926164 18.3681043,7.65552439 C18.3708238,7.78059305 18.4730061,7.88052441 18.5981043,7.88052441 L19.2881043,7.88052441 C19.350158,7.88052441 19.4095874,7.85549155 19.4528975,7.81105166 C19.4962075,7.76661176 19.5197231,7.70655701 19.5181043,7.64452439 C19.4053302,4.33028749 17.4119529,1.37069485 14.3831043,0.0205243948 C14.3269438,-0.0049379901 14.2629112,-0.00678319003 14.2053777,0.0154029287 C14.1478442,0.0375890474 14.1016289,0.081948166 14.0771043,0.138524395 L14.0771043,0.138524395 Z M6.31510427,2.27152439 L6.57810427,2.91152439 C6.62620459,3.02778949 6.57240934,3.16116614 6.45710427,3.21152439 C4.707623,4.02551303 3.55271656,5.74131903 3.45710427,7.66852439 C3.45385074,7.79320072 3.35182304,7.89252441 3.22710427,7.89252441 L2.53710427,7.89252441 C2.47478059,7.89228323 2.41519874,7.86686879 2.37188857,7.82205217 C2.3285784,7.77723556 2.30521519,7.71681991 2.30710427,7.65452439 C2.41249437,5.2713023 3.84308855,3.14761323 6.01210427,2.15452439 C6.12808874,2.10335772 6.26360673,2.15568645 6.31510427,2.27152439 L6.31510427,2.27152439 Z M5.44110427,0.138524395 L5.70210427,0.778524395 C5.72570914,0.834485013 5.72611665,0.897530685 5.70323714,0.953791763 C5.68035764,1.01005284 5.63606534,1.05492059 5.58010427,1.07852439 C2.97296415,2.25015319 1.25603948,4.79918559 1.15010427,7.65552439 C1.14738475,7.78059305 1.04520249,7.8805244 0.92010427,7.8805244 L0.23010427,7.8805244 C0.168136642,7.88027066 0.108869375,7.85513012 0.0656190436,7.81075152 C0.0223687122,7.76637292 -0.00123755087,7.70647801 5.00399572e-05,7.64452439 C0.113114996,4.33036417 2.10641563,1.37088529 5.13510427,0.0205243948 C5.19129963,-0.00465688476 5.25522324,-0.00635846351 5.31267867,0.0157975524 C5.3701341,0.0379535682 5.41636502,0.082133037 5.44110427,0.138524395 L5.44110427,0.138524395 Z" id="Shape" fill="#484F58"></path>
                </g>
            </g>
        </g>
    </g>
</svg>