<?xml version="1.0" encoding="UTF-8"?>
<svg width="20px" height="18px" viewBox="0 0 20 18" version="1.1" xmlns="http://www.w3.org/2000/svg" xmlns:xlink="http://www.w3.org/1999/xlink">
    <title>Icon3 Copy</title>
    <g id="CaseStudy" stroke="none" stroke-width="1" fill="none" fill-rule="evenodd">
        <g transform="translate(-86.000000, -170.000000)" fill="currentColor"  id="Navigation-Menu">
            <g transform="translate(66.000000, 51.000000)">
                <g id="Page3" transform="translate(0.000000, 103.000000)">
                    <path d="M32.49994,16 L32.49994,16.818208 L21.24996,16.818208 C21.01996,16.818208 20.83314,17.001358 20.83314,17.227006 L20.83314,32.772472 C20.83314,32.998318 21.01996,33.181558 21.24996,33.181558 L37.08318,33.181558 C37.31308,33.181558 37.49992,32.998318 37.49992,32.772472 L37.49992,24.999946 L38.33322,24.999946 L38.33322,32.772472 C38.33322,33.449326 37.77254,33.99973 37.08318,33.99973 L21.24996,33.99973 C20.5606,33.99973 20,33.449326 20,32.772472 L20,17.227006 C20,16.550368 20.5606,16 21.24996,16 L32.49994,16 Z M36.87498,16.013482 C37.11664,16.013482 37.35782,16.100026 37.5341,16.273114 C37.5341,16.273114 39.7215,18.420838 39.7215,18.420838 C39.89788,18.593656 39.99468,18.823534 39.99468,19.068082 C39.99468,19.312486 39.89788,19.542292 39.7215,19.715182 C39.7215,19.715182 29.87786,29.380012 29.87786,29.380012 C29.81921,29.4375355 29.745035,29.4761354 29.6649369,29.4918401 L29.58322,29.499766 L26.66658,29.499766 C26.4363,29.499766 26.24994,29.316904 26.24994,29.090752 L26.24994,26.227078 C26.24994,26.118394 26.29384,26.014516 26.37196,25.937818 C26.37196,25.937818 28.9170442,23.4390436 31.4189913,20.9826214 L31.9180387,20.4926545 C34.1542618,18.2971212 36.21578,16.273114 36.21578,16.273114 C36.39188,16.100026 36.63316,16.013482 36.87498,16.013482 Z M27.08324,26.396494 L27.08324,28.681738 L29.4107,28.681738 L27.08324,26.396494 Z M35.20812,18.4192 L27.6725,25.818064 L29.99986,28.103218 L37.53576,20.704282 L35.20812,18.4192 Z M36.80486,16.851634 L36.7586028,16.8970494 C36.6455295,17.0080647 36.3251552,17.3226083 35.79748,17.84068 L38.12484,20.125546 C38.79656,19.466242 39.13242,19.13659 39.13242,19.13659 C39.171,19.098844 39.171,19.037104 39.13242,18.999214 C39.13242,18.999214 36.94484,16.851634 36.94484,16.851634 C36.89672,16.804474 36.8529,16.804474 36.80486,16.851634 Z" id="Icon3-Copy"></path>
                </g>
            </g>
        </g>
    </g>
</svg>