<?xml version="1.0" encoding="UTF-8"?>
<svg width="22px" height="20px" viewBox="0 0 22 20" version="1.1" xmlns="http://www.w3.org/2000/svg" xmlns:xlink="http://www.w3.org/1999/xlink">
    <title>Icon2</title>
    <g id="CaseStudy" stroke="none" stroke-width="1" fill="none" fill-rule="evenodd">
        <g transform="translate(-86.000000, -120.000000)" id="Navigation-Menu">
            <g transform="translate(66.000000, 51.000000)">
                <g id="Icon2" transform="translate(20.000000, 69.000000)">
                    <path d="M20.8725424,12.763 L19.7345424,12.763 L19.7345424,1.735 L20.8725424,1.735 C21.3401899,1.71912015 21.7110848,1.33541707 21.7110848,0.8675 C21.7110848,0.399582926 21.3401899,0.015879853 20.8725424,0 L0.838542403,0 C0.370894866,0.015879853 0,0.399582926 0,0.8675 C0,1.33541707 0.370894866,1.71912015 0.838542403,1.735 L1.9785424,1.735 L1.9785424,12.763 L0.838542403,12.763 C0.370894866,12.7788799 0,13.1625829 0,13.6305 C0,14.0984171 0.370894866,14.4821201 0.838542403,14.498 L7.8955424,14.498 C7.8775424,14.513 7.8585424,14.525 7.8415424,14.542 L4.1225424,18.273 C3.78921331,18.614474 3.78921331,19.159526 4.1225424,19.501 C4.28198962,19.663344 4.5,19.7547955 4.7275424,19.7547955 C4.95509241,19.7547955 5.17309519,19.663344 5.3325424,19.501 L9.0505424,15.77 C9.38591638,15.429763 9.38813691,14.8839546 9.0555424,14.541 C9.0375424,14.523 9.0165424,14.509 8.9975424,14.493 L12.7245424,14.493 C12.7045424,14.51 12.6835424,14.524 12.6655424,14.543 C12.3327726,14.884721 12.3349964,15.4300046 12.6705424,15.769 L16.3895424,19.501 C16.5496573,19.6629326 16.7682939,19.7534767 16.9960156,19.7521593 C17.2237374,19.7508419 17.4413117,19.6577742 17.5995424,19.494 C17.9309679,19.1515771 17.9283036,18.6071626 17.5935424,18.268 L13.8765424,14.537 L13.8765424,14.537 C13.8595424,14.52 13.8405424,14.508 13.8235424,14.493 L20.8775424,14.493 C21.3273195,14.4542212 21.6722831,14.0771434 21.6709783,13.6256996 C21.6696736,13.1742558 21.3225361,12.7991783 20.8725424,12.763 L20.8725424,12.763 Z M18.0225424,1.735 L18.0225424,12.763 L3.6905424,12.763 L3.6905424,1.735 L18.0225424,1.735 L18.0225424,1.735 Z" id="Shape2" fill="#495059"></path>
                    <path d="M6.4895424,9.381 L9.2165424,6.912 L11.9975424,9.612 C12.1801385,9.78874519 12.4244163,9.88738895 12.6785424,9.88700115 L12.7435424,9.88700115 C12.9942844,9.86994766 13.2289984,9.75759979 13.3995424,9.573 L15.4885424,7.295 C15.6520872,7.40277318 15.8436804,7.46014682 16.0395424,7.46 C16.5748714,7.45614703 17.0058677,7.0193325 17.0025615,6.484 L16.9895424,5.278 C16.9845878,5.01059225 16.8691035,4.75717847 16.6705424,4.578 C16.4681445,4.39903337 16.2019434,4.30957826 15.9325424,4.33 L14.7175424,4.43 C14.4601839,4.45087432 14.2216756,4.57318627 14.0545424,4.77 C13.7516307,5.12356954 13.7478285,5.64404277 14.0455424,6.002 L12.6375424,7.537 L9.9205424,4.901 C9.54966968,4.54249343 8.96450884,4.53244213 8.5815424,4.878 L5.1755424,7.958 C4.98536293,8.13001611 4.87182018,8.37090598 4.86017617,8.62707426 C4.84853216,8.88324254 4.93975276,9.13343984 5.1135424,9.322 C5.47947433,9.71339476 6.09145077,9.73963503 6.4895424,9.381 Z" id="Shape1" fill="currentColor"></path>
                </g>
            </g>
        </g>
    </g>
</svg>